<svg width="504" height="88" viewBox="0 0 504 88" fill="none" xmlns="http://www.w3.org/2000/svg">
<path d="M18 29.5C18 27.0147 20.0147 25 22.5 25H51C53.2091 25 55 26.7909 55 29V30C55 32.2091 53.2091 34 51 34H22.5C20.0147 34 18 31.9853 18 29.5Z" fill="#0048FF"/>
<path fillRule="evenodd" clipRule="evenodd" d="M74.5061 33.4725H65.0525L65.0279 46.7913H74.1704C77.827 46.7913 80.7913 49.7556 80.7913 53.4122C80.7913 57.0688 77.827 60.033 74.1704 60.033H65.0034L64.978 73.753C64.978 73.753 95.8459 80.4823 101.713 62.6737C108.826 41.0809 87.7807 40.3056 87.7807 40.3056C87.7807 40.3056 100.67 34.3621 101.142 24.4363C101.949 7.4947 82.8278 6.4643 72.1158 7.20425C71.3181 7.14536 70.5393 7.1033 69.8351 7.08966C66.2335 7.01992 60.6543 7 60.6543 7C60.1608 7.01159 59.6479 7.02072 59.1209 7.02767C51.6302 7.1264 45.1382 11.8617 42.8152 18.5778C42.3678 19.1954 42.092 19.9471 42.0599 20.7646L42.0035 22.1977C41.9566 22.6272 41.926 23.062 41.9122 23.5014C41.9066 23.6826 41.911 23.8535 41.9323 24.0076L41.7213 29.3695C41.6327 31.6198 43.4185 33.4995 45.6704 33.5264L51.3124 33.5939C53.4787 33.6197 55.2719 31.9162 55.3571 29.7514L55.581 24.0603C56.6656 22.1742 58.7008 20.9041 61.0327 20.9041H74.5061C77.9767 20.9041 80.7903 23.7176 80.7903 27.1883C80.7903 30.659 77.9767 33.4725 74.5061 33.4725ZM41.296 57.6086H15.0372C13.1395 57.6086 11.4809 56.5846 10.584 55.0589C9.70489 56.8295 7.77983 58.058 5.54646 58.058C2.48324 58.058 0 55.7469 0 52.896C0 50.0451 2.48324 47.7339 5.54646 47.7339C7.59266 47.7339 9.38006 48.7652 10.3414 50.2997C11.1561 48.5205 12.9523 47.2845 15.0372 47.2845H45.263C45.274 47.2844 45.285 47.2844 45.296 47.2844H51.2111C53.4202 47.2844 55.2111 49.0753 55.2111 51.2844V69.7679C55.2111 71.977 53.4202 73.7679 51.2111 73.7679H45.296C43.0869 73.7679 41.296 71.977 41.296 69.7679V57.6086ZM21.8575 29.5911C21.8575 31.5744 20.0985 33.1821 17.9287 33.1821C15.759 33.1821 14 31.5744 14 29.5911C14 27.6079 15.759 26.0001 17.9287 26.0001C20.0985 26.0001 21.8575 27.6079 21.8575 29.5911Z" fill="#0048FF"/>
<path d="M125.032 64V56.192H135.656C137.619 56.192 139.155 55.616 140.264 54.464C141.373 53.312 141.928 51.904 141.928 50.24C141.928 49.088 141.672 48.064 141.16 47.168C140.648 46.272 139.923 45.568 138.984 45.056C138.088 44.544 136.979 44.288 135.656 44.288H125.032V36.672H134.824C136.488 36.672 137.832 36.2667 138.856 35.456C139.88 34.6027 140.392 33.3227 140.392 31.616C140.392 29.952 139.88 28.7147 138.856 27.904C137.832 27.0507 136.488 26.624 134.824 26.624H125.032V18.816H136.744C139.645 18.816 142.099 19.3493 144.104 20.416C146.152 21.4827 147.709 22.912 148.776 24.704C149.843 26.496 150.376 28.48 150.376 30.656C150.376 33.4293 149.48 35.776 147.688 37.696C145.896 39.616 143.251 40.9387 139.752 41.664L140.008 38.272C143.805 38.9973 146.728 40.4693 148.776 42.688C150.867 44.9067 151.912 47.6373 151.912 50.88C151.912 53.3547 151.293 55.5947 150.056 57.6C148.861 59.5627 147.112 61.12 144.808 62.272C142.547 63.424 139.816 64 136.616 64H125.032ZM117.352 64V18.816H127.272V64H117.352ZM157.456 64V32.896H167.248V64H157.456ZM167.248 46.912L163.152 43.712C163.963 40.0853 165.328 37.2693 167.248 35.264C169.168 33.2587 171.835 32.256 175.248 32.256C176.741 32.256 178.043 32.4907 179.152 32.96C180.304 33.3867 181.307 34.0693 182.16 35.008L176.336 42.368C175.909 41.8987 175.376 41.536 174.736 41.28C174.096 41.024 173.371 40.896 172.56 40.896C170.939 40.896 169.637 41.408 168.656 42.432C167.717 43.4133 167.248 44.9067 167.248 46.912ZM199.253 64.704C195.883 64.704 192.875 64.0213 190.23 62.656C187.627 61.248 185.579 59.3067 184.086 56.832C182.592 54.3573 181.846 51.5627 181.846 48.448C181.846 45.3333 182.571 42.56 184.022 40.128C185.515 37.6533 187.52 35.712 190.038 34.304C192.555 32.896 195.392 32.192 198.55 32.192C201.622 32.192 204.331 32.8533 206.678 34.176C209.024 35.4987 210.859 37.3333 212.182 39.68C213.547 42.0267 214.229 44.7147 214.229 47.744C214.229 48.2987 214.187 48.896 214.102 49.536C214.059 50.1333 213.952 50.8373 213.782 51.648L186.966 51.712V44.992L209.622 44.928L205.398 47.744C205.355 45.952 205.078 44.48 204.566 43.328C204.054 42.1333 203.286 41.2373 202.262 40.64C201.28 40 200.064 39.68 198.614 39.68C197.078 39.68 195.734 40.0427 194.582 40.768C193.472 41.4507 192.598 42.432 191.958 43.712C191.36 44.992 191.062 46.5493 191.062 48.384C191.062 50.2187 191.382 51.7973 192.022 53.12C192.704 54.4 193.643 55.4027 194.838 56.128C196.075 56.8107 197.526 57.152 199.19 57.152C200.726 57.152 202.112 56.896 203.35 56.384C204.587 55.8293 205.675 55.0187 206.614 53.952L211.99 59.328C210.454 61.12 208.598 62.464 206.422 63.36C204.246 64.256 201.856 64.704 199.253 64.704ZM234.316 64.704C230.945 64.704 227.937 64.0213 225.292 62.656C222.689 61.248 220.641 59.3067 219.148 56.832C217.655 54.3573 216.908 51.5627 216.908 48.448C216.908 45.3333 217.633 42.56 219.084 40.128C220.577 37.6533 222.583 35.712 225.1 34.304C227.617 32.896 230.455 32.192 233.612 32.192C236.684 32.192 239.393 32.8533 241.74 34.176C244.087 35.4987 245.921 37.3333 247.244 39.68C248.609 42.0267 249.292 44.7147 249.292 47.744C249.292 48.2987 249.249 48.896 249.164 49.536C249.121 50.1333 249.015 50.8373 248.844 51.648L222.028 51.712V44.992L244.684 44.928L240.46 47.744C240.417 45.952 240.14 44.48 239.628 43.328C239.116 42.1333 238.348 41.2373 237.324 40.64C236.343 40 235.127 39.68 233.676 39.68C232.14 39.68 230.796 40.0427 229.644 40.768C228.535 41.4507 227.66 42.432 227.02 43.712C226.423 44.992 226.124 46.5493 226.124 48.384C226.124 50.2187 226.444 51.7973 227.084 53.12C227.767 54.4 228.705 55.4027 229.9 56.128C231.137 56.8107 232.588 57.152 234.252 57.152C235.788 57.152 237.175 56.896 238.412 56.384C239.649 55.8293 240.737 55.0187 241.676 53.952L247.052 59.328C245.516 61.12 243.66 62.464 241.484 63.36C239.308 64.256 236.919 64.704 234.316 64.704ZM252.035 58.24L267.651 38.592H279.555L263.939 58.24H252.035ZM252.035 64V58.24L259.01 55.808H279.171V64H252.035ZM253.187 41.088V32.896H279.555V38.592L272.643 41.088H253.187ZM299.503 64.704C296.133 64.704 293.125 64.0213 290.48 62.656C287.877 61.248 285.829 59.3067 284.336 56.832C282.842 54.3573 282.096 51.5627 282.096 48.448C282.096 45.3333 282.821 42.56 284.272 40.128C285.765 37.6533 287.77 35.712 290.288 34.304C292.805 32.896 295.642 32.192 298.8 32.192C301.872 32.192 304.581 32.8533 306.928 34.176C309.274 35.4987 311.109 37.3333 312.432 39.68C313.797 42.0267 314.479 44.7147 314.479 47.744C314.479 48.2987 314.437 48.896 314.352 49.536C314.309 50.1333 314.202 50.8373 314.032 51.648L287.216 51.712V44.992L309.872 44.928L305.648 47.744C305.605 45.952 305.328 44.48 304.816 43.328C304.304 42.1333 303.536 41.2373 302.512 40.64C301.53 40 300.314 39.68 298.864 39.68C297.328 39.68 295.984 40.0427 294.832 40.768C293.722 41.4507 292.848 42.432 292.208 43.712C291.61 44.992 291.312 46.5493 291.312 48.384C291.312 50.2187 291.632 51.7973 292.272 53.12C292.954 54.4 293.893 55.4027 295.088 56.128C296.325 56.8107 297.776 57.152 299.44 57.152C300.976 57.152 302.362 56.896 303.6 56.384C304.837 55.8293 305.925 55.0187 306.864 53.952L312.24 59.328C310.704 61.12 308.848 62.464 306.672 63.36C304.496 64.256 302.106 64.704 299.503 64.704ZM322.487 64V30.528C322.487 28.0533 323.041 25.792 324.151 23.744C325.303 21.6533 326.945 19.9893 329.079 18.752C331.255 17.472 333.836 16.832 336.823 16.832V25.6C335.415 25.6 334.305 26.048 333.495 26.944C332.684 27.84 332.279 28.928 332.279 30.208V64H322.487ZM315.639 41.216V32.896H346.423V41.216H315.639ZM342.199 64V17.536H351.991V64H342.199ZM373.87 64.704C370.67 64.704 367.768 64 365.166 62.592C362.606 61.1413 360.579 59.1787 359.086 56.704C357.592 54.2293 356.846 51.456 356.846 48.384C356.846 45.312 357.592 42.56 359.086 40.128C360.579 37.696 362.606 35.776 365.166 34.368C367.726 32.9173 370.627 32.192 373.87 32.192C377.112 32.192 380.014 32.896 382.574 34.304C385.134 35.712 387.16 37.6533 388.654 40.128C390.147 42.56 390.894 45.312 390.894 48.384C390.894 51.456 390.147 54.2293 388.654 56.704C387.16 59.1787 385.134 61.1413 382.574 62.592C380.014 64 377.112 64.704 373.87 64.704ZM373.87 55.808C375.278 55.808 376.515 55.5093 377.582 54.912C378.648 54.272 379.459 53.3973 380.014 52.288C380.611 51.136 380.91 49.8347 380.91 48.384C380.91 46.9333 380.611 45.6747 380.014 44.608C379.416 43.4987 378.584 42.6453 377.518 42.048C376.494 41.408 375.278 41.088 373.87 41.088C372.504 41.088 371.288 41.408 370.222 42.048C369.155 42.6453 368.323 43.4987 367.726 44.608C367.128 45.7173 366.83 46.9973 366.83 48.448C366.83 49.856 367.128 51.136 367.726 52.288C368.323 53.3973 369.155 54.272 370.222 54.912C371.288 55.5093 372.504 55.808 373.87 55.808ZM402.76 64L392.008 32.896H401.608L408.264 55.488L405.448 55.552L412.808 32.896H420.744L428.168 55.552L425.288 55.488L432.008 32.896H441.608L430.856 64H422.856L415.624 42.496H418.056L410.696 64H402.76Z" fill="white"/>
</svg>
